<svg width="24" height="25" viewBox="0 0 24 25" fill="none" xmlns="http://www.w3.org/2000/svg">
<path d="M6.99805 0.900391C3.13905 0.900391 0 3.93761 0 7.66895V17.3356C0 21.066 3.14195 24.1004 7.00195 24.1004H17.002C20.861 24.1004 24 21.0632 24 17.3318V7.66517C24 3.9348 20.858 0.900391 16.998 0.900391H6.99805ZM19 4.76706C19.552 4.76706 20 5.20012 20 5.73372C20 6.26732 19.552 6.70039 19 6.70039C18.448 6.70039 18 6.26732 18 5.73372C18 5.20012 18.448 4.76706 19 4.76706ZM12 6.70039C15.309 6.70039 18 9.30169 18 12.5004C18 15.6991 15.309 18.3004 12 18.3004C8.691 18.3004 6 15.6991 6 12.5004C6 9.30169 8.691 6.70039 12 6.70039ZM12 8.63372C10.9391 8.63372 9.92172 9.0411 9.17157 9.76624C8.42143 10.4914 8 11.4749 8 12.5004C8 13.5259 8.42143 14.5094 9.17157 15.2345C9.92172 15.9597 10.9391 16.3671 12 16.3671C13.0609 16.3671 14.0783 15.9597 14.8284 15.2345C15.5786 14.5094 16 13.5259 16 12.5004C16 11.4749 15.5786 10.4914 14.8284 9.76624C14.0783 9.0411 13.0609 8.63372 12 8.63372Z" fill="#7FE27B"/>
</svg>
