<svg width="24" height="25" viewBox="0 0 24 25" fill="none" xmlns="http://www.w3.org/2000/svg">
<path d="M6.99805 0.899902C3.13905 0.899902 0 3.93712 0 7.66846V17.3351C0 21.0655 3.14195 24.0999 7.00195 24.0999H17.002C20.861 24.0999 24 21.0627 24 17.3313V7.66468C24 3.93431 20.858 0.899902 16.998 0.899902H6.99805ZM19 4.76657C19.552 4.76657 20 5.19964 20 5.73324C20 6.26684 19.552 6.6999 19 6.6999C18.448 6.6999 18 6.26684 18 5.73324C18 5.19964 18.448 4.76657 19 4.76657ZM12 6.6999C15.309 6.6999 18 9.3012 18 12.4999C18 15.6986 15.309 18.2999 12 18.2999C8.691 18.2999 6 15.6986 6 12.4999C6 9.3012 8.691 6.6999 12 6.6999ZM12 8.63324C10.9391 8.63324 9.92172 9.04062 9.17157 9.76576C8.42143 10.4909 8 11.4744 8 12.4999C8 13.5254 8.42143 14.5089 9.17157 15.234C9.92172 15.9592 10.9391 16.3666 12 16.3666C13.0609 16.3666 14.0783 15.9592 14.8284 15.234C15.5786 14.5089 16 13.5254 16 12.4999C16 11.4744 15.5786 10.4909 14.8284 9.76576C14.0783 9.04062 13.0609 8.63324 12 8.63324Z" fill="#1C4953"/>
</svg>
