<svg width="24" height="24" viewBox="0 0 24 24" fill="none" xmlns="http://www.w3.org/2000/svg">
<path d="M5.88126 8.04346H1.05078V23.6574H5.88126V8.04346Z" fill="#1C4953"/>
<path d="M3.44342 5.99122C5.01956 5.99122 6.30087 4.69856 6.30087 3.11109C6.30087 1.52361 5.01956 0.230957 3.44342 0.230957C1.86728 0.230957 0.585938 1.52361 0.585938 3.11109C0.585937 4.69856 1.86728 5.99122 3.44342 5.99122Z" fill="#1C4953"/>
<path d="M13.6143 15.4592C13.6143 13.2594 14.6234 11.9554 16.5624 11.9554C18.3427 11.9554 19.1931 13.214 19.1931 15.4592C19.1931 17.7043 19.1931 23.6574 19.1931 23.6574H24.0009C24.0009 23.6574 24.0009 17.9538 24.0009 13.7696C24.0009 9.5855 21.631 7.56714 18.32 7.56714C15.009 7.56714 13.6143 10.1525 13.6143 10.1525V8.0434H8.97656V23.6574H13.6143C13.6143 23.6574 13.6143 17.8631 13.6143 15.4592Z" fill="#1C4953"/>
</svg>
