<svg width="25" height="24" viewBox="0 0 25 24" fill="none" xmlns="http://www.w3.org/2000/svg">
<path d="M5.88126 8.04297H1.05078V23.6569H5.88126V8.04297Z" fill="#7FE27B"/>
<path d="M3.44342 5.99073C5.01956 5.99073 6.30087 4.69808 6.30087 3.1106C6.30087 1.52312 5.01956 0.230469 3.44342 0.230469C1.86728 0.230469 0.585938 1.52312 0.585938 3.1106C0.585937 4.69808 1.86728 5.99073 3.44342 5.99073Z" fill="#7FE27B"/>
<path d="M13.6143 15.4584C13.6143 13.2587 14.6234 11.9547 16.5624 11.9547C18.3427 11.9547 19.1931 13.2133 19.1931 15.4584C19.1931 17.7036 19.1931 23.6566 19.1931 23.6566H24.0009C24.0009 23.6566 24.0009 17.953 24.0009 13.7689C24.0009 9.58477 21.631 7.56641 18.32 7.56641C15.009 7.56641 13.6143 10.1517 13.6143 10.1517V8.04266H8.97656V23.6566H13.6143C13.6143 23.6566 13.6143 17.8623 13.6143 15.4584Z" fill="#7FE27B"/>
</svg>
