<svg width="17" height="19" viewBox="0 0 17 19" fill="none" xmlns="http://www.w3.org/2000/svg">
<path d="M1 8.19008C1 6.28314 1.7575 4.45433 3.10592 3.10592C4.45433 1.7575 6.28314 1 8.19008 1C10.097 1 11.926 1.7575 13.2744 3.10592C14.6228 4.45433 15.3803 6.28314 15.3803 8.19008V8.27431C15.1685 10.8747 14.0091 13.3069 12.1223 15.1087C11.114 16.1715 9.98622 17.114 8.76128 17.9174C8.60376 18.0569 8.40051 18.134 8.19008 18.134C7.97966 18.134 7.77653 18.0569 7.619 17.9174C5.80965 16.729 4.22486 15.2298 2.93792 13.4891C1.78202 11.969 1.12764 10.1269 1.06548 8.2182L1 8.19008Z" stroke="#7FE27B" stroke-width="1.5" stroke-linecap="round" stroke-linejoin="round"/>
<path d="M8.18981 10.6335C9.46178 10.6335 10.4929 9.60239 10.4929 8.33043C10.4929 7.05847 9.46178 6.02734 8.18981 6.02734C6.91785 6.02734 5.88672 7.05847 5.88672 8.33043C5.88672 9.60239 6.91785 10.6335 8.18981 10.6335Z" stroke="#1C4953" stroke-width="1.5" stroke-linecap="round" stroke-linejoin="round"/>
</svg>
