<svg width="18" height="18" viewBox="0 0 18 18" fill="none" xmlns="http://www.w3.org/2000/svg">
<path d="M7.25001 0.000244141C11.2541 0.000244141 14.5 3.15264 14.5 7.04131C14.5 8.7233 13.8927 10.2675 12.8795 11.4784L17.7803 16.2381C18.0732 16.5226 18.0732 16.9837 17.7803 17.2681C17.5141 17.5268 17.0974 17.5503 16.8038 17.3387L16.7197 17.2681L11.8188 12.5086C10.5719 13.4926 8.98191 14.0824 7.25001 14.0824C3.24594 14.0824 0 10.93 0 7.04131C0 3.15264 3.24594 0.000244141 7.25001 0.000244141ZM7.25001 1.45702C4.07437 1.45702 1.5 3.95719 1.5 7.04131C1.5 10.1254 4.07437 12.6256 7.25001 12.6256C10.4256 12.6256 13 10.1254 13 7.04131C13 3.95719 10.4256 1.45702 7.25001 1.45702Z" fill="#212121"/>
</svg>
