<svg width="20" height="20" viewBox="0 0 20 20" fill="none" xmlns="http://www.w3.org/2000/svg">
<path d="M18.32 9.66001C18.32 11.3728 17.8122 13.0471 16.8606 14.4713C15.909 15.8954 14.5567 17.0054 12.9743 17.6608C11.3919 18.3163 9.65054 18.4878 7.97067 18.1536C6.29079 17.8195 4.74779 16.9947 3.53666 15.7836C2.32554 14.5725 1.50055 13.0294 1.16641 11.3495C0.832258 9.6696 1.00374 7.9284 1.6592 6.34599C2.31466 4.76358 3.42474 3.4111 4.84888 2.45953C6.27301 1.50795 7.94723 1 9.66002 1C11.9568 1 14.1595 1.91236 15.7836 3.53643C17.4077 5.16049 18.32 7.36323 18.32 9.66001V9.66001Z" stroke="#7FE27B" stroke-width="1.5" stroke-linecap="round" stroke-linejoin="round"/>
<path d="M12.8733 12.4226L9.34375 10.3161V5.77539" stroke="#1C4953" stroke-width="1.5" stroke-linecap="round" stroke-linejoin="round"/>
</svg>
