<svg width="48" height="32" viewBox="0 0 48 32" fill="none" xmlns="http://www.w3.org/2000/svg">
<path d="M48 26.3999H0V31.9999H48V26.3999Z" fill="#009966"/>
<path d="M48 0H0V5.6H48V0Z" fill="#009966"/>
<path d="M48 5.6001H0V7.2001H48V5.6001Z" fill="black"/>
<path d="M48 24.8H0V26.4H48V24.8Z" fill="black"/>
<path d="M48 7.19995H0V24.7999H48V7.19995Z" fill="#000099"/>
<path d="M23.2011 7.6001C15.2011 10.0001 15.6011 16.0001 18.1611 21.5201L15.1211 24.4001L20.6411 22.4001V15.0401C22.4011 12.4001 25.6011 12.4001 27.3611 15.0401V22.4001L32.8811 24.4001L29.8411 21.5201C32.4011 16.0001 32.8011 10.0001 24.8011 7.6001L24.0011 11.0401L23.2011 7.6001Z" fill="white"/>
<path d="M27.0401 15.7641L25.173 17.2014L25.8813 19.52L24.0016 18.0956L22.1237 19.5173L22.829 17.1996L20.9601 15.7596L23.2757 15.7516L23.9986 13.44L24.7244 15.7527L27.0401 15.7641Z" fill="white"/>
</svg>
