<svg width="26" height="17" viewBox="0 0 26 17" fill="none" xmlns="http://www.w3.org/2000/svg">
<path d="M25.4554 2.65215C25.1528 1.60254 24.2754 0.787204 23.1559 0.506058C21.1288 -6.31205e-06 13 0 13 0C13 0 4.87122 -6.31205e-06 2.84406 0.506058C1.72459 0.787204 0.847168 1.61191 0.544608 2.65215C-6.01133e-08 4.54521 0 8.49999 0 8.49999C0 8.49999 -6.01133e-08 12.4548 0.544608 14.3478C0.847168 15.3975 1.72459 16.2128 2.84406 16.4939C4.87122 17 13 17 13 17C13 17 21.1288 17 23.1559 16.4939C24.2754 16.2128 25.1528 15.3881 25.4554 14.3478C26 12.4548 26 8.49999 26 8.49999C26 8.49999 26 4.54521 25.4554 2.65215ZM10.3476 12.0893V4.91069L17.135 8.49999L10.3476 12.0893Z" fill="#7FE27B"/>
</svg>
